<svg xmlns="http://www.w3.org/2000/svg" xmlns:xlink="http://www.w3.org/1999/xlink" viewBox="0 0 276.78 291.95"><defs><style>.cls-1{fill:url(#linear-gradient);}.cls-2{fill:url(#linear-gradient-2);}</style><linearGradient id="linear-gradient" y1="145.98" x2="214.65" y2="145.98" gradientUnits="userSpaceOnUse"><stop offset="0" stop-color="#6d3890"/><stop offset="0.51" stop-color="#5f4794"/><stop offset="1" stop-color="#574e94"/></linearGradient><linearGradient id="linear-gradient-2" x1="228" y1="145.21" x2="276.78" y2="145.21" gradientUnits="userSpaceOnUse"><stop offset="0" stop-color="#545093"/><stop offset="1" stop-color="#505494"/></linearGradient></defs><g id="Layer_2" data-name="Layer 2"><g id="Layer_1-2" data-name="Layer 1"><path id="Path_515" data-name="Path 515" class="cls-1" d="M176.59,53.73a98.44,98.44,0,0,0-51.77-2.68C83.44,60,52.31,96,49.07,138.21a97.27,97.27,0,0,0,147.66,90.7,11.83,11.83,0,0,1,17.92,10.22l-.07,28.42a12,12,0,0,1-7,10.83A145.31,145.31,0,0,1,148,291.94C71.89,293,6.49,233.77.47,157.84-6.36,72,61.52,0,145.91,0A145,145,0,0,1,195,8.45a11.81,11.81,0,0,1,7,15.18c-.09.24-.19.49-.29.73-3.13,7.06-7.16,16.12-10.19,23A12,12,0,0,1,176.59,53.73Z"/><path id="Path_516" data-name="Path 516" class="cls-2" d="M276.78,97.4v98.46a82.44,82.44,0,0,1-32.45,65.68c-5,3.81-9.44,6.95-12.41,9a2.5,2.5,0,0,1-3.92-2V81.75a4.39,4.39,0,0,1,4.36-4.43,4.12,4.12,0,0,1,1.26.17,232.19,232.19,0,0,1,40.79,16,4.42,4.42,0,0,1,2.37,3.94ZM228,60.42V21.3a1.87,1.87,0,0,1,1.86-1.87,1.72,1.72,0,0,1,.6.1c24.37,8.12,46.32,23.15,46.32,51.06v4.74a4.41,4.41,0,0,1-4.39,4.41,4.17,4.17,0,0,1-1.93-.44,246.69,246.69,0,0,0-39.21-14.61A4.44,4.44,0,0,1,228,60.42Z"/></g></g></svg>