<svg xmlns="http://www.w3.org/2000/svg" xmlns:xlink="http://www.w3.org/1999/xlink" viewBox="0 0 908.39 315.97"><defs><style>.cls-1{fill:url(#linear-gradient);}.cls-2{fill:url(#linear-gradient-2);}.cls-3{fill:url(#linear-gradient-3);}.cls-4{fill:url(#linear-gradient-4);}.cls-5{fill:url(#linear-gradient-5);}.cls-6{fill:url(#linear-gradient-6);}.cls-7{fill:url(#linear-gradient-7);}.cls-8{fill:url(#linear-gradient-8);}.cls-9{fill:url(#linear-gradient-9);}.cls-10{fill:url(#linear-gradient-10);}.cls-11{fill:url(#linear-gradient-11);}.cls-12{fill:url(#linear-gradient-12);}.cls-13{fill:url(#linear-gradient-13);}.cls-14{fill:url(#linear-gradient-14);}.cls-15{fill:url(#linear-gradient-15);}.cls-16{fill:url(#linear-gradient-16);}.cls-17{fill:url(#linear-gradient-17);}.cls-18{fill:url(#linear-gradient-18);}.cls-19{fill:url(#linear-gradient-19);}.cls-20{fill:url(#linear-gradient-20);}.cls-21{fill:url(#linear-gradient-21);}.cls-22{fill:url(#linear-gradient-22);}.cls-23{fill:url(#linear-gradient-23);}.cls-24{fill:url(#linear-gradient-24);}.cls-25{fill:url(#linear-gradient-25);}.cls-26{fill:url(#linear-gradient-26);}.cls-27{fill:url(#linear-gradient-27);}</style><linearGradient id="linear-gradient" x1="-511.53" y1="697.46" x2="-459.37" y2="697.47" gradientTransform="matrix(10.28, 0, 0, -77.37, 5629.54, 54161.43)" gradientUnits="userSpaceOnUse"><stop offset="0" stop-color="#00b8f7"/><stop offset="0.43" stop-color="#fd8917"/><stop offset="0.76" stop-color="#f321ed"/><stop offset="1" stop-color="#9f2bf3"/></linearGradient><linearGradient id="linear-gradient-2" x1="-509.57" y1="696.59" x2="-499.47" y2="696.6" gradientTransform="matrix(53.09, 0, 0, -51.97, 27423.09, 36412.93)" xlink:href="#linear-gradient"/><linearGradient id="linear-gradient-3" x1="-511.55" y1="697.47" x2="-497.11" y2="697.48" gradientTransform="matrix(37.11, 0, 0, -77.96, 19355, 54573.47)" xlink:href="#linear-gradient"/><linearGradient id="linear-gradient-4" x1="-511.57" y1="696.63" x2="-500.9" y2="696.64" gradientTransform="matrix(50.25, 0, 0, -52.72, 26080.2, 36938.91)" xlink:href="#linear-gradient"/><linearGradient id="linear-gradient-5" x1="-529.13" y1="697.39" x2="-477.08" y2="697.39" gradientTransform="matrix(10.3, 0, 0, -74.34, 5820.93, 52044.45)" xlink:href="#linear-gradient"/><linearGradient id="linear-gradient-6" x1="-531.47" y1="697.39" x2="-479.5" y2="697.39" gradientTransform="matrix(10.32, 0, 0, -74.35, 5856.8, 52045.85)" xlink:href="#linear-gradient"/><linearGradient id="linear-gradient-7" x1="-533.5" y1="696.37" x2="-482.12" y2="696.38" gradientTransform="matrix(10.43, 0, 0, -48.08, 5937.94, 33693.54)" xlink:href="#linear-gradient"/><linearGradient id="linear-gradient-8" x1="-513.85" y1="697.51" x2="-503.75" y2="697.51" gradientTransform="matrix(53.05, 0, 0, -79.55, 27633.6, 55710.43)" xlink:href="#linear-gradient"/><linearGradient id="linear-gradient-9" x1="-515.42" y1="696.62" x2="-504.75" y2="696.63" gradientTransform="matrix(50.23, 0, 0, -52.73, 26263.76, 36939.59)" xlink:href="#linear-gradient"/><linearGradient id="linear-gradient-10" x1="-516.12" y1="696.58" x2="-506.03" y2="696.59" gradientTransform="matrix(53.12, 0, 0, -51.97, 27787.73, 36411.48)" xlink:href="#linear-gradient"/><linearGradient id="linear-gradient-11" x1="-518.09" y1="696.63" x2="-507.04" y2="696.65" gradientTransform="matrix(48.54, 0, 0, -53, 25517.25, 37132.74)" xlink:href="#linear-gradient"/><linearGradient id="linear-gradient-12" x1="-518.86" y1="696.62" x2="-508.19" y2="696.63" gradientTransform="matrix(50.24, 0, 0, -52.73, 26439.49, 36939.51)" xlink:href="#linear-gradient"/><linearGradient id="linear-gradient-13" x1="-509.94" y1="697.58" x2="-502.4" y2="697.58" gradientTransform="matrix(71.06, 0, 0, -82.75, 36608.04, 57834.97)" xlink:href="#linear-gradient"/><linearGradient id="linear-gradient-14" x1="-512.47" y1="696.69" x2="-500.64" y2="696.7" gradientTransform="matrix(45.36, 0, 0, -54.09, 23615.47, 37810.59)" xlink:href="#linear-gradient"/><linearGradient id="linear-gradient-15" x1="-530.63" y1="697.53" x2="-480.5" y2="697.54" gradientTransform="matrix(10.69, 0, 0, -80.6, 6045.59, 56327.33)" xlink:href="#linear-gradient"/><linearGradient id="linear-gradient-16" x1="-515.26" y1="697.53" x2="-501.35" y2="697.54" gradientTransform="matrix(38.54, 0, 0, -80.54, 20229.66, 56290.4)" xlink:href="#linear-gradient"/><linearGradient id="linear-gradient-17" x1="-514.35" y1="696.69" x2="-504.23" y2="696.7" gradientTransform="matrix(53, 0, 0, -54.1, 27633.65, 37814.18)" xlink:href="#linear-gradient"/><linearGradient id="linear-gradient-18" x1="-519.88" y1="696.64" x2="-503.51" y2="696.65" gradientTransform="matrix(32.75, 0, 0, -52.98, 17400.24, 37033.09)" xlink:href="#linear-gradient"/><linearGradient id="linear-gradient-19" x1="-515.93" y1="696.75" x2="-506.23" y2="696.76" gradientTransform="matrix(55.3, 0, 0, -55.35, 28901.03, 38687.05)" xlink:href="#linear-gradient"/><linearGradient id="linear-gradient-20" x1="-552.97" y1="697.53" x2="-502.88" y2="697.53" gradientTransform="matrix(10.71, 0, 0, -80.6, 6291.87, 56327.27)" xlink:href="#linear-gradient"/><linearGradient id="linear-gradient-21" x1="-519.15" y1="690.98" x2="-502.87" y2="691.02" gradientTransform="matrix(32.94, 0, 0, -16.72, 17474.74, 11709.96)" xlink:href="#linear-gradient"/><linearGradient id="linear-gradient-22" x1="-513.68" y1="690.98" x2="-502.15" y2="691.02" gradientTransform="matrix(46.49, 0, 0, -16.72, 24251.53, 11613.48)" xlink:href="#linear-gradient"/><linearGradient id="linear-gradient-23" x1="-511.04" y1="691.04" x2="-497.09" y2="691.07" gradientTransform="matrix(38.42, 0, 0, -16.8, 20008.61, 11847.04)" xlink:href="#linear-gradient"/><linearGradient id="linear-gradient-24" x1="-512.12" y1="693.99" x2="-504.8" y2="694.02" gradientTransform="matrix(73.22, 0, 0, -26.31, 37869.25, 18432.92)" xlink:href="#linear-gradient"/><linearGradient id="linear-gradient-25" x1="-517.06" y1="691.01" x2="-506.77" y2="691.05" gradientTransform="matrix(52.11, 0, 0, -16.8, 27317.41, 11847.04)" xlink:href="#linear-gradient"/><linearGradient id="linear-gradient-26" x1="-508.7" y1="698.81" x2="-507.41" y2="698.81" gradientTransform="matrix(232.31, 0, 0, -315.97, 118176.46, 220960.17)" xlink:href="#linear-gradient"/><linearGradient id="linear-gradient-27" x1="-513.82" y1="698.74" x2="-508.15" y2="698.74" gradientTransform="matrix(52.79, 0, 0, -272.25, 27124.23, 190387.75)" xlink:href="#linear-gradient"/></defs><g id="Layer_2" data-name="Layer 2"><g id="Layer_1-2" data-name="Layer 1"><g id="Group_909" data-name="Group 909"><path id="Path_488" data-name="Path 488" class="cls-1" d="M381.78,218.7V160.59a29.9,29.9,0,0,0-10.28-3.29V232a2.67,2.67,0,0,0,.78,1.88,2.53,2.53,0,0,0,1.78.79C375.94,234.45,381.78,232.63,381.78,218.7Z"/><path id="Path_489" data-name="Path 489" class="cls-2" d="M437,209.17a17.41,17.41,0,0,0-1.24-6.68,14,14,0,0,0-3.43-5,15.81,15.81,0,0,0-5.14-3.14,17.27,17.27,0,0,0-6.28-1.12,18.11,18.11,0,0,0-6.14,1.06,16.33,16.33,0,0,0-5.2,3,13.81,13.81,0,0,0-3.55,4.78,15.25,15.25,0,0,0-1.3,6.38V232a2.71,2.71,0,0,1-.78,1.89,2.56,2.56,0,0,1-1.95.78h-5a2.56,2.56,0,0,1-1.95-.78,2.71,2.71,0,0,1-.78-1.89V186.71a2.84,2.84,0,0,1,.78-2.07,2.65,2.65,0,0,1,1.95-.78h5a2.65,2.65,0,0,1,1.95.78,2.84,2.84,0,0,1,.78,2.07c0,.72.46.79,1.36.3s2-1.08,3.37-1.71a34.71,34.71,0,0,1,5.56-1.9,24.42,24.42,0,0,1,5.9-.7,27.41,27.41,0,0,1,10.28,1.94,26.17,26.17,0,0,1,8.46,5.44,25.25,25.25,0,0,1,5.67,8.4,27.25,27.25,0,0,1,2.05,10.7V232a2.71,2.71,0,0,1-.78,1.89,2.59,2.59,0,0,1-.9.6,2.53,2.53,0,0,1-1.06.19h-5a2.82,2.82,0,0,1-2.72-2.71Z"/><path id="Path_490" data-name="Path 490" class="cls-3" d="M451.76,186.59a2.65,2.65,0,0,1,.78-2,2.78,2.78,0,0,1,2.06-.78h9c1,0,1.57-.36,1.57-1.06V160.22a4.6,4.6,0,0,1,.78-2.72,2.63,2.63,0,0,1,1.95-.78h4.85a2.65,2.65,0,0,1,1.95.78,4.6,4.6,0,0,1,.78,2.72V182.8c0,.7.51,1.06,1.57,1.06h9.1a2.67,2.67,0,0,1,1.89.78,2.56,2.56,0,0,1,.82,2v4.86a2.56,2.56,0,0,1-.82,1.94,2.67,2.67,0,0,1-1.89.78h-8.38a5,5,0,0,0-1.89.24.85.85,0,0,0-.47.83V232a2.78,2.78,0,0,1-.78,1.89,2.56,2.56,0,0,1-2,.78h-4.84a2.54,2.54,0,0,1-1.95-.78,2.74,2.74,0,0,1-.79-1.89V195.23c0-.71-.78-1.07-2.35-1.07h-8.14a2.78,2.78,0,0,1-2.06-.78,2.59,2.59,0,0,1-.78-1.95Z"/><path id="Path_491" data-name="Path 491" class="cls-4" d="M492.05,209.17a26.49,26.49,0,0,1,1.89-9.87,27,27,0,0,1,5.26-8.45,25,25,0,0,1,8-5.79,23.65,23.65,0,0,1,10-2.13A24.53,24.53,0,0,1,538,194a27.6,27.6,0,0,1,4.26,15.25,2.54,2.54,0,0,1-2.35,2.72h-.25l-36.06.24a.73.73,0,0,0-.79.53,1.42,1.42,0,0,0-.05.89,13.68,13.68,0,0,0,5.73,8.45,18.29,18.29,0,0,0,10.11,3.14,16.52,16.52,0,0,0,7.5-1.71,14.64,14.64,0,0,0,5.48-4.79,2.43,2.43,0,0,1,2-1.24,3.54,3.54,0,0,1,2.13,1l3.66,2.72a2.66,2.66,0,0,1,1.13,1.94,3.52,3.52,0,0,1-.54,2.07,23.4,23.4,0,0,1-9.16,7.63,29.65,29.65,0,0,1-12.35,2.77,26.78,26.78,0,0,1-10.2-2A25.92,25.92,0,0,1,492,209.17ZM528.69,202c1.34,0,1.82-.55,1.41-1.65a8.89,8.89,0,0,0-5-5.32,19.82,19.82,0,0,0-7.68-1.77,20.75,20.75,0,0,0-7.62,1.89,9.88,9.88,0,0,0-5.15,5.2,1.15,1.15,0,0,0,.12,1.12,1.44,1.44,0,0,0,1.3.53Z"/><path id="Path_492" data-name="Path 492" class="cls-5" d="M560.39,160.35a2.64,2.64,0,0,1,2,.79,2.78,2.78,0,0,1,.78,2.07V232a2.71,2.71,0,0,1-.78,1.89,2.59,2.59,0,0,1-.89.6,2.72,2.72,0,0,1-1.06.18h-4.83a2.69,2.69,0,0,1-1.06-.18,2.59,2.59,0,0,1-.89-.6,2.71,2.71,0,0,1-.78-1.89V163.19a2.78,2.78,0,0,1,.78-2.07,2.63,2.63,0,0,1,1.95-.78Z"/><path id="Path_493" data-name="Path 493" class="cls-6" d="M584.86,160.35a2.66,2.66,0,0,1,1.95.79,2.78,2.78,0,0,1,.78,2.07V232a2.71,2.71,0,0,1-.78,1.89,2.56,2.56,0,0,1-1.95.78H580a2.72,2.72,0,0,1-1.06-.18,2.59,2.59,0,0,1-.89-.6,2.67,2.67,0,0,1-.78-1.89V163.19a2.69,2.69,0,0,1,.18-1.12,2.79,2.79,0,0,1,.6-.95,2.63,2.63,0,0,1,2-.78Z"/><path id="Path_494" data-name="Path 494" class="cls-7" d="M608.87,186.62a2.63,2.63,0,0,1,2,.78,2.81,2.81,0,0,1,.61.95,3.06,3.06,0,0,1,.18,1.12V232a2.76,2.76,0,0,1-.79,1.89,2.54,2.54,0,0,1-2,.78h-5a2.53,2.53,0,0,1-1.95-.78,2.67,2.67,0,0,1-.79-1.89V189.45a2.77,2.77,0,0,1,.79-2.07,2.67,2.67,0,0,1,1.95-.78Z"/><path id="Path_495" data-name="Path 495" class="cls-8" d="M664.17,231.75q0-.94-1.65-.12a28.29,28.29,0,0,1-6.68,3,26.75,26.75,0,0,1-7.84,1.18,27.23,27.23,0,0,1-10.29-2,26,26,0,0,1-8.45-5.44,25.64,25.64,0,0,1-5.74-8.4,28.44,28.44,0,0,1,0-21.5,25.34,25.34,0,0,1,14.17-13.84A27.63,27.63,0,0,1,648,182.69a25.69,25.69,0,0,1,7,.94,32.74,32.74,0,0,1,6.38,2.6c.87.4,1.57.71,2,1s.74.12.78-.36v-.23a2.67,2.67,0,0,1,.78-1.89,2.54,2.54,0,0,1,2-.83h4.85a2.54,2.54,0,0,1,1.95.83,2.72,2.72,0,0,1,.79,1.89v49.17a26.67,26.67,0,0,1-2.13,10.76,25.77,25.77,0,0,1-14.11,13.77,26.78,26.78,0,0,1-10.2,1.95,27.66,27.66,0,0,1-12.29-2.71A24.27,24.27,0,0,1,626.6,252a3.53,3.53,0,0,1-.43-2.06v-4.55c.05-.93.94-1,1.76-1,1,0,2.55-.21,3.05.55,1.5,2.05,7.2,4.2,9.5,5.3a17.05,17.05,0,0,0,7.56,1.66,16.81,16.81,0,0,0,6.2-1.12,16.06,16.06,0,0,0,5.15-3.19,14.68,14.68,0,0,0,3.54-5,16.38,16.38,0,0,0,1.3-6.73Zm-32.51-22.58A17,17,0,0,0,633,216a14.81,14.81,0,0,0,3.55,5.09,15.94,15.94,0,0,0,5.2,3.19,18.06,18.06,0,0,0,12.55,0,15.31,15.31,0,0,0,5.14-3.19,14.67,14.67,0,0,0,3.43-5.09,17.94,17.94,0,0,0,1.24-6.8,17.6,17.6,0,0,0-1.24-6.68,14,14,0,0,0-3.43-5,15.81,15.81,0,0,0-5.14-3.14,18.06,18.06,0,0,0-12.55,0,16.55,16.55,0,0,0-5.2,3.14,14.1,14.1,0,0,0-3.55,5A16.68,16.68,0,0,0,631.66,209.17Z"/><path id="Path_496" data-name="Path 496" class="cls-9" d="M685.4,209.17a27,27,0,0,1,1.88-9.87,27.27,27.27,0,0,1,5.26-8.45,25,25,0,0,1,8-5.79,23.67,23.67,0,0,1,10.05-2.13A24.54,24.54,0,0,1,731.37,194a27.6,27.6,0,0,1,4.26,15.25,2.5,2.5,0,0,1-.14,1.05A2.54,2.54,0,0,1,733,212l-36.07.24a.71.71,0,0,0-.78.53,1.36,1.36,0,0,0-.06.89,13.69,13.69,0,0,0,5.74,8.45,18.28,18.28,0,0,0,10.1,3.14,16.52,16.52,0,0,0,7.5-1.71,14.67,14.67,0,0,0,5.49-4.79,2.4,2.4,0,0,1,2-1.24,3.58,3.58,0,0,1,2.19,1l3.66,2.72a2.58,2.58,0,0,1,1.12,1.94,3.42,3.42,0,0,1-.53,2.07,23.38,23.38,0,0,1-9.16,7.63,29.86,29.86,0,0,1-12.36,2.78,26.78,26.78,0,0,1-10.19-2,25.66,25.66,0,0,1-14.11-13.76A26.6,26.6,0,0,1,685.4,209.17ZM722.05,202c1.34,0,1.81-.55,1.42-1.65a9,9,0,0,0-5-5.32,19.82,19.82,0,0,0-7.69-1.77,21,21,0,0,0-7.63,1.89,9.84,9.84,0,0,0-5.13,5.2,1.15,1.15,0,0,0-.09.58,1.09,1.09,0,0,0,.21.54,1.42,1.42,0,0,0,1.29.53Z"/><path id="Path_497" data-name="Path 497" class="cls-10" d="M785,209.17a17.41,17.41,0,0,0-1.24-6.68,14,14,0,0,0-3.43-5,16,16,0,0,0-5.14-3.14,17.64,17.64,0,0,0-6.27-1.12,17.88,17.88,0,0,0-6.15,1.06,16.3,16.3,0,0,0-5.21,3,13.91,13.91,0,0,0-3.54,4.78,15.25,15.25,0,0,0-1.3,6.38V232a2.71,2.71,0,0,1-1.67,2.49,2.75,2.75,0,0,1-1.06.18h-5a2.57,2.57,0,0,1-2-.79,2.67,2.67,0,0,1-.78-1.89V186.71a2.62,2.62,0,0,1,.18-1.11,2.68,2.68,0,0,1,.6-1,2.63,2.63,0,0,1,2-.78h5a2.61,2.61,0,0,1,1.94.78,2.79,2.79,0,0,1,.79,2.07c0,.71.45.79,1.36.3s2-1.08,3.37-1.71a34.94,34.94,0,0,1,5.55-1.9,24.58,24.58,0,0,1,5.92-.7,27.41,27.41,0,0,1,10.28,1.94,26.25,26.25,0,0,1,8.43,5.44,25.14,25.14,0,0,1,5.67,8.4,27.26,27.26,0,0,1,2.07,10.7V232a2.76,2.76,0,0,1-.78,1.89,2.61,2.61,0,0,1-2,.79h-5A2.82,2.82,0,0,1,785,232Z"/><path id="Path_498" data-name="Path 498" class="cls-11" d="M803.07,209.17a26.53,26.53,0,0,1,2.12-10.69,25.47,25.47,0,0,1,14.19-13.84,28.28,28.28,0,0,1,22.52.83,24.28,24.28,0,0,1,9.16,7.75,3.54,3.54,0,0,1,.54,2.06,2.34,2.34,0,0,1-1.13,1.84L846.81,200a2.57,2.57,0,0,1-2.13.65,2.78,2.78,0,0,1-1.9-1.12q-4.6-6.27-13.12-6.27a17.25,17.25,0,0,0-6.27,1.12,16.55,16.55,0,0,0-5.2,3.14,14.1,14.1,0,0,0-3.55,5,17.9,17.9,0,0,0,0,13.42,14.91,14.91,0,0,0,3.55,5,15.8,15.8,0,0,0,5.2,3.2,17.68,17.68,0,0,0,6.27,1.12,16.74,16.74,0,0,0,7.5-1.66,15,15,0,0,0,5.62-4.7,2.83,2.83,0,0,1,1.9-1.12,2.4,2.4,0,0,1,2.12.79l3.66,2.83a2.19,2.19,0,0,1,.79.78,2.21,2.21,0,0,1,.34,1.05,3.51,3.51,0,0,1-.53,2.07,23.82,23.82,0,0,1-9.17,7.69,27.66,27.66,0,0,1-12.23,2.72,27.32,27.32,0,0,1-10.29-2A25.56,25.56,0,0,1,805.19,220,26.43,26.43,0,0,1,803.07,209.17Z"/><path id="Path_499" data-name="Path 499" class="cls-12" d="M858.15,209.17A26.69,26.69,0,0,1,860,199.3a27.27,27.27,0,0,1,5.26-8.45,25,25,0,0,1,8-5.79,23.67,23.67,0,0,1,10-2.13A24.56,24.56,0,0,1,904.1,194a27.53,27.53,0,0,1,4.28,15.25,2.53,2.53,0,0,1-.7,1.94,2.36,2.36,0,0,1-.87.59,2.45,2.45,0,0,1-1,.19l-36.07.24a.71.71,0,0,0-.78.53,1.43,1.43,0,0,0-.07.89,13.8,13.8,0,0,0,5.8,8.45,18.34,18.34,0,0,0,10.11,3.14,16.56,16.56,0,0,0,7.51-1.71,14.74,14.74,0,0,0,5.49-4.79,2.4,2.4,0,0,1,2-1.24,3.48,3.48,0,0,1,2.12,1l3.67,2.72a2.58,2.58,0,0,1,1.12,1.94,3.49,3.49,0,0,1-.53,2.07,23.31,23.31,0,0,1-9.16,7.63,29.82,29.82,0,0,1-12.36,2.78,26.78,26.78,0,0,1-10.19-2,25.66,25.66,0,0,1-14.11-13.76A26.41,26.41,0,0,1,858.15,209.17ZM894.8,202c1.34,0,1.81-.55,1.42-1.65a9,9,0,0,0-5-5.32,19.82,19.82,0,0,0-7.68-1.77,21,21,0,0,0-7.63,1.89,9.81,9.81,0,0,0-5.13,5.2,1.05,1.05,0,0,0-.1.58,1.09,1.09,0,0,0,.21.54,1.4,1.4,0,0,0,1.29.53Z"/><path id="Path_500" data-name="Path 500" class="cls-13" d="M438.62,108.88a40,40,0,0,1,3.27-16.15,41.74,41.74,0,0,1,22-22,39.64,39.64,0,0,1,16-3.27,42.71,42.71,0,0,1,16,3A36.57,36.57,0,0,1,508.75,79a3.43,3.43,0,0,1,.93,2.1,2.67,2.67,0,0,1-.93,2.09L505.3,86.6a2.78,2.78,0,0,1-2.15.93,3,3,0,0,1-2-.93,25.77,25.77,0,0,0-9.41-6.16A32.61,32.61,0,0,0,480,78.34a29.65,29.65,0,0,0-11.83,2.4,30.62,30.62,0,0,0,0,56.34,29.48,29.48,0,0,0,11.83,2.4,31.25,31.25,0,0,0,11.7-2.16,28,28,0,0,0,9.5-6.22,2.66,2.66,0,0,1,2-.93,2.25,2.25,0,0,1,2.22,2.26l0,2.39c0,1.25.06,2.48,0,3.39a3.32,3.32,0,0,1-.78,1.9,18.65,18.65,0,0,1-8.83,7.14,42.6,42.6,0,0,1-15.9,3,40.51,40.51,0,0,1-16-3.21,41.22,41.22,0,0,1-13.12-8.81A42.11,42.11,0,0,1,441.87,125,40,40,0,0,1,438.62,108.88Z"/><path id="Path_501" data-name="Path 501" class="cls-14" d="M526.93,122.55q0,7.77,3.69,12.27a12,12,0,0,0,9.81,4.51,12.22,12.22,0,0,0,9.5-4.25c2.53-2.83,2.76-6.72,2.9-11.65V98.89a3.21,3.21,0,0,1,.68-2,2.14,2.14,0,0,1,1.74-.86h5.44a2.14,2.14,0,0,1,1.74.86,3.06,3.06,0,0,1,.68,2v47.21a3.22,3.22,0,0,1-.68,2.15,2.23,2.23,0,0,1-1.74.79l-5.44.06a2.23,2.23,0,0,1-1.64-.67,2.91,2.91,0,0,1-.79-1.92c0-.4-.1-.63-.26-.67a.71.71,0,0,0-.25,0,.63.63,0,0,0-.23.08c-3.73,2.87-6.86,4.25-11.65,4.25a20.22,20.22,0,0,1-9.07-2,22.07,22.07,0,0,1-7.16-5.64,26.17,26.17,0,0,1-4.76-8.69,35.3,35.3,0,0,1-1.68-11.22V98.89a3.06,3.06,0,0,1,.68-2,2.14,2.14,0,0,1,1.74-.86h4.33a2.14,2.14,0,0,1,1.74.86,3.06,3.06,0,0,1,.68,2Z"/><path id="Path_502" data-name="Path 502" class="cls-15" d="M585,68.51a2.77,2.77,0,0,1,2,.78,3,3,0,0,1,.78,2.16v74.82a2.83,2.83,0,0,1-.78,2,2.67,2.67,0,0,1-2,.86h-5.05a2.65,2.65,0,0,1-2-.86,2.84,2.84,0,0,1-.79-2V71.46a2.91,2.91,0,0,1,.79-2.15,2.74,2.74,0,0,1,2-.79Z"/><path id="Path_503" data-name="Path 503" class="cls-16" d="M598.94,98.89a2.75,2.75,0,0,1,.78-2,2.91,2.91,0,0,1,2.17-.78h9.36c1.06,0,1.61-.38,1.61-1.12V71.44a2.87,2.87,0,0,1,.78-2.16,2.73,2.73,0,0,1,2-.78h5.06a2.75,2.75,0,0,1,2,.78,3,3,0,0,1,.78,2.16V95c0,.74.53,1.11,1.61,1.11h9.49a2.84,2.84,0,0,1,2,.79,2.61,2.61,0,0,1,.86,2v5a2.68,2.68,0,0,1-.86,2,2.88,2.88,0,0,1-2,.78H626a5.12,5.12,0,0,0-2,.25.94.94,0,0,0-.38.36,1,1,0,0,0-.11.5v38.34a2.75,2.75,0,0,1-.78,2,2.66,2.66,0,0,1-2,.87h-5.06a2.62,2.62,0,0,1-2-.87,2.75,2.75,0,0,1-.78-2V107.89c0-.74-.83-1.11-2.47-1.11H601.9a2.92,2.92,0,0,1-2.16-.79,2.74,2.74,0,0,1-.79-2Z"/><path id="Path_504" data-name="Path 504" class="cls-17" d="M658,122.55q0,7.77,4.31,12.27t11.46,4.51a15.4,15.4,0,0,0,11.13-4.27q4.44-4.25,4.7-11.65V98.89a2.86,2.86,0,0,1,.78-2,2.65,2.65,0,0,1,2-.86h5a2.61,2.61,0,0,1,2,.86,2.83,2.83,0,0,1,.79,2V146.1a3,3,0,0,1-.17,1.15,2.86,2.86,0,0,1-.62,1,2.74,2.74,0,0,1-2,.79h-5.05a2.79,2.79,0,0,1-1.91-.68,2.74,2.74,0,0,1-.93-1.91c0-.41-.1-.63-.3-.67a.83.83,0,0,0-.56.06,26.41,26.41,0,0,1-14.9,4.31,26.78,26.78,0,0,1-10.6-2,25.28,25.28,0,0,1-13.93-14.36,30.64,30.64,0,0,1-2-11.2V98.89a2.77,2.77,0,0,1,.78-2,2.61,2.61,0,0,1,2-.86h5.06a2.61,2.61,0,0,1,2,.86,2.77,2.77,0,0,1,.78,2Z"/><path id="Path_505" data-name="Path 505" class="cls-18" d="M741.59,106.9a25.87,25.87,0,0,0-7.21,1,17.49,17.49,0,0,0-6,3,15.15,15.15,0,0,0-4.19,5.24,17.88,17.88,0,0,0-1.72,7.64v22.43a2.83,2.83,0,0,1-.79,2,2.61,2.61,0,0,1-2,.86h-5.18a2.57,2.57,0,0,1-2-.86,2.83,2.83,0,0,1-.79-2V99a2.91,2.91,0,0,1,.79-2.15,2.74,2.74,0,0,1,2-.79h5.18a2.78,2.78,0,0,1,2,.79,3,3,0,0,1,.79,2.16v1.11c0,.58.1.92.3,1.05a.94.94,0,0,0,.86-.06,16.29,16.29,0,0,0,1.49-.79,18.53,18.53,0,0,1,2-1,56.28,56.28,0,0,1,6.9-2.28,30.3,30.3,0,0,1,7.52-.92,2.83,2.83,0,0,1,2,.79,2.61,2.61,0,0,1,.86,2v5.15a2.68,2.68,0,0,1-.86,2A2.78,2.78,0,0,1,741.59,106.9Z"/><path id="Path_506" data-name="Path 506" class="cls-19" d="M800.5,96.06a2.76,2.76,0,0,1,2,.78,2.92,2.92,0,0,1,.79,2.16v47.21a2.84,2.84,0,0,1-.79,2,2.66,2.66,0,0,1-2,.86h-5a2.62,2.62,0,0,1-2-.86,2.79,2.79,0,0,1-.78-2V146c0-.65-.58-.69-1.73-.12a50.48,50.48,0,0,1-7.27,3.08,24.88,24.88,0,0,1-7.89,1.23,28.06,28.06,0,0,1-10.72-2,26.62,26.62,0,0,1-14.8-14.42,29.46,29.46,0,0,1,0-22.44,26.57,26.57,0,0,1,14.8-14.41,28.26,28.26,0,0,1,10.72-2,25.64,25.64,0,0,1,6,.68,35.77,35.77,0,0,1,5.6,1.79,16.68,16.68,0,0,1,3.77,2c.86.66,1.37.66,1.56,0V99a2.91,2.91,0,0,1,.79-2.15,2.76,2.76,0,0,1,2-.79Zm-41.78,26.37a17.65,17.65,0,0,0,1.36,7.06,15.2,15.2,0,0,0,3.7,5.3,16.5,16.5,0,0,0,5.41,3.32,18.84,18.84,0,0,0,13.07,0,16,16,0,0,0,5.37-3.32,15.15,15.15,0,0,0,3.56-5.3,18.54,18.54,0,0,0,1.3-7.06,18.12,18.12,0,0,0-1.3-7,14.66,14.66,0,0,0-3.56-5.23,16.74,16.74,0,0,0-5.37-3.27,18.84,18.84,0,0,0-13.07,0,17.22,17.22,0,0,0-5.41,3.27,14.6,14.6,0,0,0-3.7,5.23A17.39,17.39,0,0,0,758.72,122.43Z"/><path id="Path_507" data-name="Path 507" class="cls-20" d="M824.29,68.44a2.76,2.76,0,0,1,2,.79,3,3,0,0,1,.79,2.15v74.83a2.8,2.8,0,0,1-.79,2,2.68,2.68,0,0,1-2,.87h-5a2.68,2.68,0,0,1-2-.87,2.77,2.77,0,0,1-.78-2V71.4a2.91,2.91,0,0,1,.78-2.16,2.77,2.77,0,0,1,2-.78Z"/><path id="Path_508" data-name="Path 508" class="cls-21" d="M705.78,162c-9,0-16.21-7.19-16.21-16.72H700.3a5.59,5.59,0,0,0,5.38,5.76h.11a5.85,5.85,0,0,0,5.86-5.76h10.86A16.74,16.74,0,0,1,705.78,162Z"/><path id="Path_509" data-name="Path 509" class="cls-22" d="M593.79,54.34h13.87c9,.08,15.91,7.24,15.91,16.71H612.88a5.52,5.52,0,0,0-5.22-5.76H593.79a6,6,0,0,0-6,5.76h-10.7A16.74,16.74,0,0,1,593.8,54.34Z"/><path id="Path_510" data-name="Path 510" class="cls-23" d="M453,248.63c-9,0-16-7.1-16-16.64l10.4-.08a5.65,5.65,0,0,0,5.56,5.76h0c.08,0,5.9.08,6,.07,3.08-.13,6.19-2.66,6.19-5.75h10.29a16.75,16.75,0,0,1-16.47,16.72Z"/><path id="Path_511" data-name="Path 511" class="cls-24" d="M617.9,163.92h40.64c8.91.08,15.82,7.13,15.92,16.5v9.8h-10.7v-9.76a5.5,5.5,0,0,0-5.22-5.59H617.9a6.5,6.5,0,0,0-6.2,4.63,1.43,1.43,0,0,1-1.38,1.13h-7.65a1.44,1.44,0,0,1-1.36-1,1.68,1.68,0,0,1-.07-.59,16.76,16.76,0,0,1,16.66-15.15Z"/><path id="Path_512" data-name="Path 512" class="cls-25" d="M801,248.63c-9.06,0-16-7.1-16-16.64l10.4-.08a5.65,5.65,0,0,0,5.54,5.76h0c.09,0,19.6.08,19.67.07,3.07-.13,3.45-2.66,3.45-5.75h13a16.75,16.75,0,0,1-16.47,16.72Z"/><path id="Path_513" data-name="Path 513" class="cls-26" d="M191.12,58.15a106.53,106.53,0,0,0-56-2.9c-44.8,9.65-78.49,48.63-82,94.34a105.28,105.28,0,0,0,159.82,98.15,12.8,12.8,0,0,1,19.39,11.06l-.07,30.76a13,13,0,0,1-7.59,11.72A157.14,157.14,0,0,1,160.19,316C77.8,317.1,7,253,.51,170.83-6.88,77.94,66.59,0,157.91,0A157,157,0,0,1,211,9.15a12.77,12.77,0,0,1,7.54,16.42c-.1.27-.21.53-.32.79-3.38,7.64-7.74,17.45-11,24.93A13,13,0,0,1,191.12,58.15Z"/><path id="Path_514" data-name="Path 514" class="cls-27" d="M299.55,105.42V212a89.21,89.21,0,0,1-35.12,71.08c-5.44,4.13-10.22,7.52-13.43,9.74a2.71,2.71,0,0,1-4.24-2.21V88.48a4.76,4.76,0,0,1,4.72-4.8,4.47,4.47,0,0,1,1.36.19A251.52,251.52,0,0,1,297,101.16a4.79,4.79,0,0,1,2.56,4.26Zm-52.79-40V23.05a2,2,0,0,1,.84-1.64,2,2,0,0,1,1.82-.28c26.38,8.8,50.13,25.06,50.13,55.27v5.13a4.77,4.77,0,0,1-4.76,4.77,4.83,4.83,0,0,1-2.08-.47A266.33,266.33,0,0,0,250.27,70a4.79,4.79,0,0,1-3.51-4.61Z"/></g></g></g></svg>